<?xml version="1.0" encoding="UTF-8"?>
<svg id="_图层_1" data-name="图层 1" xmlns="http://www.w3.org/2000/svg" viewBox="0 0 351.75 64.33">
  <defs>
    <style>
      .cls-1, .cls-2, .cls-3, .cls-4, .cls-5, .cls-6, .cls-7, .cls-8, .cls-9 {
        fill: none;
      }

      .cls-1, .cls-2, .cls-4, .cls-5, .cls-6, .cls-7, .cls-8, .cls-9 {
        stroke-miterlimit: 8;
      }

      .cls-1, .cls-6, .cls-7, .cls-9 {
        stroke-width: 2.73px;
      }

      .cls-1, .cls-8 {
        stroke: #036eb7;
      }

      .cls-2, .cls-4, .cls-5, .cls-8 {
        stroke-width: 3.64px;
      }

      .cls-2, .cls-7 {
        stroke: #00913a;
      }

      .cls-10 {
        fill: #666;
        font-family: MicrosoftYaHei, 'Microsoft YaHei';
        font-size: 34px;
      }

      .cls-11 {
        fill: #fff;
      }

      .cls-12 {
        letter-spacing: 0em;
      }

      .cls-13 {
        letter-spacing: -.01em;
      }

      .cls-14 {
        stroke: #e73828;
        stroke-linejoin: round;
        stroke-width: .46px;
      }

      .cls-14, .cls-15 {
        fill: #e73828;
      }

      .cls-4, .cls-6 {
        stroke: #8f338e;
      }

      .cls-5, .cls-9 {
        stroke: #cb3c33;
      }
    </style>
  </defs>
  <text class="cls-10" transform="translate(128.62 43.92) scale(1.04 1)"><tspan x="0" y="0">DeepH-</tspan><tspan class="cls-13" x="127.2" y="0">p</tspan><tspan class="cls-12" x="148.43" y="0">ack</tspan></text>
  <g>
    <g>
      <line class="cls-2" x1="96.93" y1="29.21" x2="77.16" y2="29.21"/>
      <path class="cls-7" d="M104.37,29.36c0-1.99-1.62-3.61-3.62-3.61s-3.62,1.61-3.62,3.61,1.62,3.61,3.62,3.61,3.62-1.61,3.62-3.61h0Z"/>
      <polyline class="cls-2" points="85.55 29.21 98.2 41.62 110.15 41.62"/>
      <path class="cls-7" d="M117.68,41.62c0-1.91-1.62-3.46-3.62-3.46s-3.62,1.55-3.62,3.46,1.62,3.46,3.62,3.46,3.62-1.55,3.62-3.46h0Z"/>
    </g>
    <g>
      <polyline class="cls-4" points="48.21 40.46 41.05 40.46 30.85 50.56 26.8 50.56"/>
      <path class="cls-6" d="M19.56,50.56c0-1.91,1.62-3.46,3.62-3.46s3.62,1.55,3.62,3.46-1.62,3.46-3.62,3.46-3.62-1.55-3.62-3.46h0Z"/>
    </g>
    <g>
      <line class="cls-5" x1="20.43" y1="32.67" x2="50.43" y2="32.67"/>
      <path class="cls-9" d="M12.9,32.53c0-1.99,1.62-3.61,3.62-3.61s3.62,1.61,3.62,3.61-1.62,3.61-3.62,3.61-3.62-1.61-3.62-3.61h0Z"/>
    </g>
    <g>
      <polyline class="cls-8" points="53.14 24.6 39.09 24.6 33.45 19.11"/>
      <path class="cls-1" d="M27.09,16.37c0-1.99,1.62-3.61,3.62-3.61s3.62,1.61,3.62,3.61-1.62,3.61-3.62,3.61-3.62-1.61-3.62-3.61h0Z"/>
    </g>
    <polygon class="cls-3" points="1 65.34 134.79 65.34 134.79 -1.51 1 -1.51 1 65.34 1 65.34"/>
    <g>
      <rect class="cls-11" x="48.21" y="29.76" width="31.49" height="11.31"/>
      <polygon class="cls-11" points="47.77 13.91 59.58 13.91 53.68 55.76 41.84 55.76 47.77 13.91"/>
      <polygon class="cls-11" points="73.03 14.15 84.84 14.15 78.94 56.01 67.1 56.01 73.03 14.15"/>
    </g>
    <g>
      <polygon class="cls-14" points="66.16 3.82 77.16 10.93 76.69 11.9 66.12 6.44 55.59 11.9 55.16 10.93 66.16 3.82 66.16 3.82"/>
      <g>
        <polyline class="cls-15" points="49.75 16.35 56.8 16.35 51.55 53.32 44.62 53.32"/>
        <polyline class="cls-15" points="75.01 16.6 82.06 16.6 76.81 53.56 69.88 53.56"/>
        <rect class="cls-15" x="50.78" y="32.24" width="26.34" height="6.35"/>
      </g>
    </g>
  </g>
</svg>