<?xml version="1.0" encoding="UTF-8"?>
<svg id="_图层_1" data-name="图层 1" xmlns="http://www.w3.org/2000/svg" viewBox="0 0 132.44 110.58">
  <defs>
    <style>
      .cls-1, .cls-2, .cls-3, .cls-4, .cls-5, .cls-6, .cls-7, .cls-8, .cls-9 {
        fill: none;
      }

      .cls-1, .cls-2, .cls-4, .cls-5, .cls-6, .cls-7, .cls-8, .cls-9 {
        stroke-miterlimit: 8;
      }

      .cls-1, .cls-6, .cls-7, .cls-9 {
        stroke-width: 2.73px;
      }

      .cls-1, .cls-8 {
        stroke: #036eb7;
      }

      .cls-2, .cls-4, .cls-5, .cls-8 {
        stroke-width: 3.64px;
      }

      .cls-2, .cls-7 {
        stroke: #00913a;
      }

      .cls-10 {
        fill: #fff;
      }

      .cls-11 {
        fill: #666;
      }

      .cls-12 {
        stroke: #e73828;
        stroke-linejoin: round;
        stroke-width: .46px;
      }

      .cls-12, .cls-13 {
        fill: #e73828;
      }

      .cls-4, .cls-6 {
        stroke: #8f338e;
      }

      .cls-5, .cls-9 {
        stroke: #cb3c33;
      }
    </style>
  </defs>
  <g>
    <path class="cls-11" d="M16.9,94.17v-12.88h4.62c1.04,0,1.84.06,2.39.18.77.17,1.42.48,1.97.92.71.57,1.24,1.31,1.59,2.2.35.89.53,1.91.53,3.06,0,.98-.12,1.85-.36,2.6-.24.76-.54,1.38-.92,1.88s-.78.88-1.22,1.17-.98.5-1.6.65-1.34.22-2.16.22h-4.84ZM18.68,92.65h2.86c.88,0,1.58-.08,2.08-.24s.9-.38,1.2-.67c.42-.4.75-.95.98-1.63s.35-1.51.35-2.48c0-1.35-.23-2.38-.69-3.11-.46-.72-1.02-1.21-1.68-1.45-.48-.18-1.24-.26-2.3-.26h-2.82v9.84Z"/>
    <path class="cls-11" d="M36.88,91.17l1.7.2c-.27.96-.77,1.7-1.49,2.22s-1.65.79-2.78.79c-1.42,0-2.55-.42-3.38-1.26s-1.25-2.02-1.25-3.54.42-2.79,1.26-3.66,1.93-1.3,3.28-1.3,2.36.42,3.18,1.27c.82.85,1.24,2.04,1.24,3.59,0,.09,0,.23,0,.42h-7.25c.06,1.03.36,1.81.91,2.36s1.22.82,2.03.82c.6,0,1.12-.15,1.55-.46.43-.3.77-.79,1.02-1.46ZM31.47,88.61h5.43c-.07-.79-.28-1.37-.62-1.77-.52-.61-1.21-.91-2.04-.91-.76,0-1.39.24-1.91.73-.52.49-.8,1.14-.86,1.95Z"/>
    <path class="cls-11" d="M47.31,91.17l1.7.2c-.27.96-.77,1.7-1.49,2.22s-1.65.79-2.78.79c-1.42,0-2.55-.42-3.38-1.26s-1.25-2.02-1.25-3.54.42-2.79,1.26-3.66,1.93-1.3,3.28-1.3,2.36.42,3.18,1.27c.82.85,1.24,2.04,1.24,3.59,0,.09,0,.23,0,.42h-7.25c.06,1.03.36,1.81.91,2.36s1.22.82,2.03.82c.6,0,1.12-.15,1.55-.46.43-.3.77-.79,1.02-1.46ZM41.9,88.61h5.43c-.07-.79-.28-1.37-.62-1.77-.52-.61-1.21-.91-2.04-.91-.76,0-1.39.24-1.91.73-.52.49-.8,1.14-.86,1.95Z"/>
    <path class="cls-11" d="M51.08,97.75v-12.91h1.5v1.21c.35-.47.75-.83,1.2-1.07s.99-.36,1.62-.36c.83,0,1.56.21,2.2.62.63.41,1.11.99,1.44,1.74.32.75.49,1.57.49,2.46,0,.96-.18,1.81-.54,2.58s-.88,1.35-1.56,1.76-1.4.61-2.15.61c-.55,0-1.04-.11-1.48-.33s-.79-.5-1.08-.84v4.54h-1.65ZM52.57,89.56c0,1.2.25,2.09.76,2.66s1.12.86,1.84.86,1.36-.3,1.88-.89c.52-.59.78-1.52.78-2.76s-.25-2.08-.76-2.67-1.12-.89-1.83-.89-1.32.31-1.86.94-.81,1.55-.81,2.75Z"/>
    <path class="cls-11" d="M61.76,94.17v-12.88h1.78v5.29h6.97v-5.29h1.78v12.88h-1.78v-6.07h-6.97v6.07h-1.78Z"/>
    <path class="cls-11" d="M74.39,90.31v-1.59h5.06v1.59h-5.06Z"/>
    <path class="cls-11" d="M81.28,97.75v-12.91h1.5v1.21c.35-.47.75-.83,1.2-1.07s.99-.36,1.62-.36c.83,0,1.56.21,2.2.62.63.41,1.11.99,1.44,1.74.32.75.49,1.57.49,2.46,0,.96-.18,1.81-.54,2.58s-.88,1.35-1.56,1.76-1.4.61-2.15.61c-.55,0-1.04-.11-1.48-.33s-.79-.5-1.08-.84v4.54h-1.65ZM82.77,89.56c0,1.2.25,2.09.76,2.66s1.12.86,1.84.86,1.36-.3,1.88-.89c.52-.59.78-1.52.78-2.76s-.25-2.08-.76-2.67-1.12-.89-1.83-.89-1.32.31-1.86.94-.81,1.55-.81,2.75Z"/>
    <path class="cls-11" d="M98.04,93.02c-.61.5-1.2.85-1.76,1.05-.56.21-1.17.31-1.82.31-1.07,0-1.89-.25-2.46-.75-.57-.5-.86-1.14-.86-1.92,0-.46.11-.87.32-1.25.22-.38.5-.68.85-.91.35-.23.75-.4,1.19-.52.32-.08.81-.16,1.46-.24,1.33-.15,2.31-.33,2.94-.54,0-.22,0-.35,0-.41,0-.64-.16-1.1-.47-1.36-.42-.36-1.05-.54-1.88-.54-.77,0-1.35.13-1.72.39s-.64.72-.82,1.38l-1.61-.21c.15-.66.39-1.2.72-1.6.34-.41.82-.72,1.46-.94.63-.22,1.37-.33,2.21-.33s1.5.09,2.02.28.9.42,1.14.71c.24.28.41.64.51,1.08.06.27.08.76.08,1.46v2.11c0,1.47.04,2.4.1,2.79.07.39.21.76.42,1.12h-1.72c-.17-.33-.28-.71-.33-1.15ZM97.9,89.49c-.6.23-1.5.43-2.69.6-.68.09-1.16.2-1.44.32-.28.12-.5.29-.65.51s-.23.48-.23.75c0,.42.17.77.5,1.05s.82.42,1.46.42,1.2-.13,1.69-.4.86-.63,1.09-1.09c.18-.36.27-.88.27-1.58v-.58Z"/>
    <path class="cls-11" d="M108.47,90.76l1.62.2c-.18,1.07-.63,1.91-1.36,2.52s-1.62.91-2.69.91c-1.33,0-2.4-.42-3.21-1.25-.81-.83-1.21-2.03-1.21-3.59,0-1.01.17-1.89.52-2.65s.88-1.32,1.59-1.7c.71-.38,1.48-.57,2.32-.57,1.06,0,1.92.26,2.59.77.67.51,1.1,1.24,1.29,2.18l-1.6.24c-.15-.63-.42-1.1-.81-1.42-.39-.32-.86-.47-1.4-.47-.83,0-1.5.29-2.02.86s-.78,1.48-.78,2.71.25,2.17.75,2.73c.5.57,1.15.85,1.96.85.65,0,1.19-.19,1.62-.57s.71-.97.82-1.76Z"/>
    <path class="cls-11" d="M111.5,94.17v-12.88h1.65v7.35l3.9-3.8h2.13l-3.72,3.46,4.09,5.87h-2.03l-3.21-4.77-1.16,1.07v3.7h-1.65Z"/>
  </g>
  <g>
    <g>
      <line class="cls-2" x1="99.04" y1="43.33" x2="79.27" y2="43.33"/>
      <path class="cls-7" d="M106.48,43.47c0-1.99-1.62-3.61-3.62-3.61s-3.62,1.61-3.62,3.61,1.62,3.61,3.62,3.61,3.62-1.61,3.62-3.61h0Z"/>
      <polyline class="cls-2" points="87.66 43.33 100.31 55.73 112.26 55.73"/>
      <path class="cls-7" d="M119.79,55.73c0-1.91-1.62-3.46-3.62-3.46s-3.62,1.55-3.62,3.46,1.62,3.46,3.62,3.46,3.62-1.55,3.62-3.46h0Z"/>
    </g>
    <g>
      <polyline class="cls-4" points="50.33 54.58 43.16 54.58 32.96 64.67 28.91 64.67"/>
      <path class="cls-6" d="M21.67,64.67c0-1.91,1.62-3.46,3.62-3.46s3.62,1.55,3.62,3.46-1.62,3.46-3.62,3.46-3.62-1.55-3.62-3.46h0Z"/>
    </g>
    <g>
      <line class="cls-5" x1="22.54" y1="46.79" x2="52.54" y2="46.79"/>
      <path class="cls-9" d="M15.01,46.64c0-1.99,1.62-3.61,3.62-3.61s3.62,1.61,3.62,3.61-1.62,3.61-3.62,3.61-3.62-1.61-3.62-3.61h0Z"/>
    </g>
    <g>
      <polyline class="cls-8" points="55.25 38.71 41.2 38.71 35.56 33.23"/>
      <path class="cls-1" d="M29.2,30.49c0-1.99,1.62-3.61,3.62-3.61s3.62,1.61,3.62,3.61-1.62,3.61-3.62,3.61-3.62-1.61-3.62-3.61h0Z"/>
    </g>
    <polygon class="cls-3" points="3.11 79.45 136.9 79.45 136.9 12.61 3.11 12.61 3.11 79.45 3.11 79.45"/>
    <g>
      <rect class="cls-10" x="50.33" y="43.87" width="31.49" height="11.31"/>
      <polygon class="cls-10" points="49.88 28.02 61.69 28.02 55.79 69.88 43.95 69.88 49.88 28.02"/>
      <polygon class="cls-10" points="75.14 28.26 86.95 28.26 81.05 70.12 69.22 70.12 75.14 28.26"/>
    </g>
    <g>
      <polygon class="cls-12" points="68.27 17.94 79.27 25.04 78.8 26.02 68.23 20.56 57.7 26.02 57.27 25.04 68.27 17.94 68.27 17.94"/>
      <g>
        <polyline class="cls-13" points="51.86 30.47 58.91 30.47 53.66 67.43 46.73 67.43"/>
        <polyline class="cls-13" points="77.12 30.71 84.18 30.71 78.93 67.68 71.99 67.68"/>
        <rect class="cls-13" x="52.89" y="46.35" width="26.34" height="6.35"/>
      </g>
    </g>
  </g>
</svg>