<?xml version="1.0" encoding="UTF-8"?>
<svg id="_图层_1" data-name="图层 1" xmlns="http://www.w3.org/2000/svg" viewBox="0 0 351.75 64.33">
  <defs>
    <style>
      .cls-1, .cls-2, .cls-3, .cls-4, .cls-5, .cls-6, .cls-7, .cls-8, .cls-9 {
        fill: none;
      }

      .cls-1, .cls-2, .cls-4, .cls-5, .cls-6, .cls-7, .cls-8, .cls-9 {
        stroke-miterlimit: 8;
      }

      .cls-1, .cls-6, .cls-7, .cls-9 {
        stroke-width: 2.73px;
      }

      .cls-1, .cls-8 {
        stroke: #036eb7;
      }

      .cls-2, .cls-4, .cls-5, .cls-8 {
        stroke-width: 3.64px;
      }

      .cls-2, .cls-7 {
        stroke: #00913a;
      }

      .cls-10 {
        fill: #fff;
      }

      .cls-11 {
        fill: #666;
      }

      .cls-12 {
        stroke: #e73828;
        stroke-linejoin: round;
        stroke-width: .46px;
      }

      .cls-12, .cls-13 {
        fill: #e73828;
      }

      .cls-4, .cls-6 {
        stroke: #8f338e;
      }

      .cls-5, .cls-9 {
        stroke: #cb3c33;
      }
    </style>
  </defs>
  <g>
    <path class="cls-11" d="M132.08,43.92v-25.72h7.64c4.06,0,7.43,1.13,10.12,3.4,2.69,2.27,4.04,5.31,4.04,9.13s-1.35,7.18-4.04,9.58c-2.69,2.4-6.16,3.6-10.4,3.6h-7.36ZM135.54,21.16v19.82h3.89c3.4,0,6.05-.89,7.96-2.67,1.91-1.78,2.86-4.28,2.86-7.49s-.98-5.62-2.94-7.24c-1.96-1.62-4.54-2.42-7.73-2.42h-4.04Z"/>
    <path class="cls-11" d="M174.19,35.57h-13.38c.06,1.96.62,3.47,1.68,4.54,1.06,1.07,2.54,1.6,4.44,1.6,2.14,0,4.11-.66,5.89-1.98v2.91c-1.68,1.14-3.91,1.71-6.69,1.71s-4.92-.84-6.47-2.52c-1.55-1.68-2.32-4.02-2.32-7.01,0-2.81.85-5.13,2.55-6.96,1.7-1.83,3.81-2.74,6.33-2.74s4.45.77,5.86,2.32c1.41,1.54,2.11,3.71,2.11,6.48v1.64ZM170.8,32.96c-.01-1.66-.42-2.94-1.23-3.85-.81-.91-1.94-1.36-3.41-1.36-1.35,0-2.52.48-3.5,1.44s-1.6,2.22-1.86,3.77h9.99Z"/>
    <path class="cls-11" d="M194.27,35.57h-13.38c.06,1.96.62,3.47,1.68,4.54,1.06,1.07,2.54,1.6,4.44,1.6,2.14,0,4.11-.66,5.89-1.98v2.91c-1.68,1.14-3.91,1.71-6.69,1.71s-4.92-.84-6.47-2.52c-1.55-1.68-2.32-4.02-2.32-7.01,0-2.81.85-5.13,2.55-6.96,1.7-1.83,3.81-2.74,6.33-2.74s4.45.77,5.86,2.32c1.41,1.54,2.11,3.71,2.11,6.48v1.64ZM190.89,32.96c-.01-1.66-.42-2.94-1.23-3.85-.81-.91-1.94-1.36-3.41-1.36-1.35,0-2.52.48-3.5,1.44s-1.6,2.22-1.86,3.77h9.99Z"/>
    <path class="cls-11" d="M202.17,41.33v11.04h-3.39v-26.81h3.39v3.17h.07c1.5-2.4,3.69-3.6,6.57-3.6,2.44,0,4.36.82,5.75,2.47s2.08,3.85,2.08,6.62c0,3.05-.79,5.51-2.36,7.36-1.57,1.85-3.69,2.78-6.35,2.78-2.46,0-4.35-1.01-5.69-3.02h-.07ZM202.16,36.35c0,1.49.5,2.75,1.5,3.78,1,1.02,2.26,1.54,3.77,1.54,1.8,0,3.2-.66,4.22-1.99,1.01-1.33,1.52-3.17,1.52-5.51,0-1.98-.47-3.53-1.42-4.66-.95-1.12-2.24-1.69-3.87-1.69s-3.04.57-4.11,1.71c-1.07,1.14-1.61,2.6-1.61,4.38v2.44Z"/>
    <path class="cls-11" d="M242.3,43.92h-3.46v-11.59h-13.55v11.59h-3.46v-25.72h3.46v11.17h13.55v-11.17h3.46v25.72Z"/>
    <path class="cls-11" d="M258.63,34.99h-10.18v-2.51h10.18v2.51Z"/>
    <path class="cls-11" d="M267.48,41.33v11.04h-3.39v-26.81h3.39v3.17h.07c1.5-2.4,3.69-3.6,6.57-3.6,2.44,0,4.36.82,5.75,2.47s2.08,3.85,2.08,6.62c0,3.05-.79,5.51-2.36,7.36-1.57,1.85-3.69,2.78-6.35,2.78-2.45,0-4.35-1.01-5.69-3.02h-.07ZM267.46,36.35c0,1.49.5,2.75,1.5,3.78,1,1.02,2.26,1.54,3.77,1.54,1.8,0,3.2-.66,4.22-1.99s1.52-3.17,1.52-5.51c0-1.98-.47-3.53-1.42-4.66-.94-1.12-2.24-1.69-3.87-1.69s-3.04.57-4.11,1.71c-1.07,1.14-1.61,2.6-1.61,4.38v2.44Z"/>
    <path class="cls-11" d="M286.65,26.84c1.9-1.14,4.1-1.71,6.59-1.71,4.61,0,6.91,2.32,6.91,6.97v11.82h-3.35v-2.84h-.09c-1.33,2.18-3.28,3.27-5.86,3.27-1.86,0-3.33-.48-4.42-1.44-1.1-.96-1.64-2.26-1.64-3.9,0-3.43,2.11-5.43,6.34-5.99l5.67-.76c0-3-1.29-4.5-3.87-4.5-2.29,0-4.38.74-6.27,2.22v-3.14ZM292.32,35.29c-1.57.2-2.65.58-3.24,1.13-.59.55-.89,1.33-.89,2.32,0,.87.32,1.59.97,2.14.65.55,1.5.83,2.56.83,1.48,0,2.69-.5,3.65-1.49s1.43-2.25,1.43-3.75v-1.76l-4.48.58Z"/>
    <path class="cls-11" d="M318.98,43.09c-1.46.84-3.23,1.26-5.29,1.26-2.77,0-4.99-.85-6.67-2.56-1.68-1.7-2.52-3.91-2.52-6.62,0-3.01.91-5.44,2.72-7.28s4.24-2.76,7.29-2.76c1.75,0,3.25.3,4.49.9v3.22c-1.35-.95-2.85-1.43-4.49-1.43-1.94,0-3.51.65-4.73,1.93-1.22,1.29-1.82,3.01-1.82,5.15s.57,3.77,1.72,4.96c1.15,1.2,2.69,1.79,4.64,1.79,1.65,0,3.2-.52,4.67-1.56v2.99Z"/>
    <path class="cls-11" d="M339.77,43.92h-4.62l-8.18-8.85h-.07v8.85h-3.39v-27.18h3.39v17.23h.07l7.76-8.42h4.36l-8.64,8.83,9.32,9.53Z"/>
  </g>
  <g>
    <g>
      <line class="cls-2" x1="96.93" y1="29.21" x2="77.16" y2="29.21"/>
      <path class="cls-7" d="M104.37,29.36c0-1.99-1.62-3.61-3.62-3.61s-3.62,1.61-3.62,3.61,1.62,3.61,3.62,3.61,3.62-1.61,3.62-3.61h0Z"/>
      <polyline class="cls-2" points="85.55 29.21 98.2 41.62 110.15 41.62"/>
      <path class="cls-7" d="M117.68,41.62c0-1.91-1.62-3.46-3.62-3.46s-3.62,1.55-3.62,3.46,1.62,3.46,3.62,3.46,3.62-1.55,3.62-3.46h0Z"/>
    </g>
    <g>
      <polyline class="cls-4" points="48.21 40.46 41.05 40.46 30.85 50.56 26.8 50.56"/>
      <path class="cls-6" d="M19.56,50.56c0-1.91,1.62-3.46,3.62-3.46s3.62,1.55,3.62,3.46-1.62,3.46-3.62,3.46-3.62-1.55-3.62-3.46h0Z"/>
    </g>
    <g>
      <line class="cls-5" x1="20.43" y1="32.67" x2="50.43" y2="32.67"/>
      <path class="cls-9" d="M12.9,32.53c0-1.99,1.62-3.61,3.62-3.61s3.62,1.61,3.62,3.61-1.62,3.61-3.62,3.61-3.62-1.61-3.62-3.61h0Z"/>
    </g>
    <g>
      <polyline class="cls-8" points="53.14 24.6 39.09 24.6 33.45 19.11"/>
      <path class="cls-1" d="M27.09,16.37c0-1.99,1.62-3.61,3.62-3.61s3.62,1.61,3.62,3.61-1.62,3.61-3.62,3.61-3.62-1.61-3.62-3.61h0Z"/>
    </g>
    <polygon class="cls-3" points="1 65.34 134.79 65.34 134.79 -1.51 1 -1.51 1 65.34 1 65.34"/>
    <g>
      <rect class="cls-10" x="48.21" y="29.76" width="31.49" height="11.31"/>
      <polygon class="cls-10" points="47.77 13.91 59.58 13.91 53.68 55.76 41.84 55.76 47.77 13.91"/>
      <polygon class="cls-10" points="73.03 14.15 84.84 14.15 78.94 56.01 67.1 56.01 73.03 14.15"/>
    </g>
    <g>
      <polygon class="cls-12" points="66.16 3.82 77.16 10.93 76.69 11.9 66.12 6.44 55.59 11.9 55.16 10.93 66.16 3.82 66.16 3.82"/>
      <g>
        <polyline class="cls-13" points="49.75 16.35 56.8 16.35 51.55 53.32 44.62 53.32"/>
        <polyline class="cls-13" points="75.01 16.6 82.06 16.6 76.81 53.56 69.88 53.56"/>
        <rect class="cls-13" x="50.78" y="32.24" width="26.34" height="6.35"/>
      </g>
    </g>
  </g>
</svg>