<?xml version="1.0" encoding="UTF-8"?>
<svg id="_图层_1" data-name="图层 1" xmlns="http://www.w3.org/2000/svg" viewBox="0 0 111.37 76.16">
  <defs>
    <style>
      .cls-1, .cls-2, .cls-3, .cls-4, .cls-5, .cls-6, .cls-7, .cls-8, .cls-9 {
        fill: none;
      }

      .cls-1, .cls-2, .cls-4, .cls-5, .cls-6, .cls-7, .cls-8, .cls-9 {
        stroke-miterlimit: 8;
      }

      .cls-1, .cls-6, .cls-7, .cls-9 {
        stroke-width: 2.73px;
      }

      .cls-1, .cls-8 {
        stroke: #036eb7;
      }

      .cls-2, .cls-4, .cls-5, .cls-8 {
        stroke-width: 3.64px;
      }

      .cls-2, .cls-7 {
        stroke: #00913a;
      }

      .cls-10 {
        fill: #fff;
      }

      .cls-11 {
        stroke: #e73828;
        stroke-linejoin: round;
        stroke-width: .46px;
      }

      .cls-11, .cls-12 {
        fill: #e73828;
      }

      .cls-4, .cls-6 {
        stroke: #8f338e;
      }

      .cls-5, .cls-9 {
        stroke: #cb3c33;
      }
    </style>
  </defs>
  <g>
    <line class="cls-2" x1="87.67" y1="32.62" x2="67.9" y2="32.62"/>
    <path class="cls-7" d="M95.1,32.76c0-1.99-1.62-3.61-3.62-3.61s-3.62,1.61-3.62,3.61,1.62,3.61,3.62,3.61,3.62-1.61,3.62-3.61h0Z"/>
    <polyline class="cls-2" points="76.29 32.62 88.94 45.02 100.89 45.02"/>
    <path class="cls-7" d="M108.42,45.02c0-1.91-1.62-3.46-3.62-3.46s-3.62,1.55-3.62,3.46,1.62,3.46,3.62,3.46,3.62-1.55,3.62-3.46h0Z"/>
  </g>
  <g>
    <polyline class="cls-4" points="38.95 43.87 31.79 43.87 21.58 53.97 17.53 53.97"/>
    <path class="cls-6" d="M10.3,53.97c0-1.91,1.62-3.46,3.62-3.46s3.62,1.55,3.62,3.46-1.62,3.46-3.62,3.46-3.62-1.55-3.62-3.46h0Z"/>
  </g>
  <g>
    <line class="cls-5" x1="11.17" y1="36.08" x2="41.17" y2="36.08"/>
    <path class="cls-9" d="M3.64,35.94c0-1.99,1.62-3.61,3.62-3.61s3.62,1.61,3.62,3.61-1.62,3.61-3.62,3.61-3.62-1.61-3.62-3.61h0Z"/>
  </g>
  <g>
    <polyline class="cls-8" points="43.87 28 29.83 28 24.19 22.52"/>
    <path class="cls-1" d="M17.82,19.78c0-1.99,1.62-3.61,3.62-3.61s3.62,1.61,3.62,3.61-1.62,3.61-3.62,3.61-3.62-1.61-3.62-3.61h0Z"/>
  </g>
  <polygon class="cls-3" points="-8.26 68.75 125.52 68.75 125.52 1.9 -8.26 1.9 -8.26 68.75 -8.26 68.75"/>
  <g>
    <rect class="cls-10" x="38.95" y="33.17" width="31.49" height="11.31"/>
    <polygon class="cls-10" points="38.51 17.32 50.32 17.32 44.41 59.17 32.58 59.17 38.51 17.32"/>
    <polygon class="cls-10" points="63.77 17.56 75.58 17.56 69.67 59.41 57.84 59.41 63.77 17.56"/>
  </g>
  <g>
    <polygon class="cls-11" points="56.9 7.23 67.9 14.33 67.43 15.31 56.86 9.85 46.33 15.31 45.9 14.33 56.9 7.23 56.9 7.23"/>
    <g>
      <polyline class="cls-12" points="40.49 19.76 47.54 19.76 42.29 56.73 35.36 56.73"/>
      <polyline class="cls-12" points="65.75 20 72.8 20 67.55 56.97 60.62 56.97"/>
      <rect class="cls-12" x="41.51" y="35.65" width="26.34" height="6.35"/>
    </g>
  </g>
</svg>